<svg width="668" height="488" viewBox="0 0 668 488" fill="none" xmlns="http://www.w3.org/2000/svg">
<path d="M209 136.903L334 24L364.242 51.4194L237.226 167.145L209 136.903Z" fill="#CF394D"/>
<path d="M459 136.903L334 24L303.758 51.4194L430.774 167.145L459 136.903Z" fill="#0F9FB1"/>
<path d="M273.516 274H297.71V225.613L281.581 159.081H245.29L273.516 274Z" fill="#A0358E"/>
<path d="M394.484 274H370.29V225.613L386.419 159.081H422.71L394.484 274Z" fill="#A0358E"/>
<path d="M350.125 159.125H317.875L297.625 225.625V274H317.875L334 221.5L350.125 274H370.375V225.625L350.125 159.125Z" fill="#004E9F"/>
<path d="M64.0058 443.406L90.0185 333.525H104.55L107.869 351.824L80.1516 464.127H64.544L64.0058 443.406ZM50.6406 333.525L72.1684 443.406L70.3744 464.127H52.9728L24 333.525H50.6406ZM130.742 442.958L152.001 333.525H178.641L149.758 464.127H132.356L130.742 442.958ZM112.712 333.525L138.905 443.855L138.187 464.127H122.579L94.6829 351.734L98.2708 333.525H112.712Z" fill="#A0358E"/>
<path d="M218.916 367.072V464.127H192.993V367.072H218.916ZM191.378 341.777C191.378 338.01 192.694 334.9 195.325 332.449C197.956 329.997 201.485 328.771 205.91 328.771C210.275 328.771 213.773 329.997 216.405 332.449C219.095 334.9 220.441 338.01 220.441 341.777C220.441 345.545 219.095 348.654 216.405 351.106C213.773 353.558 210.275 354.784 205.91 354.784C201.485 354.784 197.956 353.558 195.325 351.106C192.694 348.654 191.378 345.545 191.378 341.777Z" fill="#A0358E"/>
<path d="M266.098 326.259V464.127H240.264V326.259H266.098ZM327.273 367.072L285.114 415.151L262.51 438.024L253.091 419.367L271.031 396.583L296.237 367.072H327.273ZM300.453 464.127L271.749 419.277L289.599 403.67L330.233 464.127H300.453Z" fill="#A0358E"/>
<path d="M365.664 367.072V464.127H339.741V367.072H365.664ZM338.126 341.777C338.126 338.01 339.442 334.9 342.073 332.449C344.704 329.997 348.232 328.771 352.657 328.771C357.023 328.771 360.521 329.997 363.152 332.449C365.843 334.9 367.189 338.01 367.189 341.777C367.189 345.545 365.843 348.654 363.152 351.106C360.521 353.558 357.023 354.784 352.657 354.784C348.232 354.784 344.704 353.558 342.073 351.106C339.442 348.654 338.126 345.545 338.126 341.777Z" fill="#A0358E"/>
<path d="M415.357 333.453V464.055H388.537V333.453H415.357Z" fill="#0F9FB1"/>
<path d="M467.472 333.453V464.055H440.562V333.453H467.472ZM519.498 389.246V410.236H460.117V389.246H519.498ZM525.777 333.453V354.533H460.117V333.453H525.777Z" fill="#0F9FB1"/>
<path d="M617.09 420.73H643.91C643.372 429.521 640.95 437.325 636.645 444.142C632.399 450.959 626.449 456.281 618.795 460.108C611.2 463.936 602.051 465.849 591.347 465.849C582.975 465.849 575.47 464.414 568.832 461.544C562.194 458.613 556.513 454.427 551.789 448.986C547.125 443.544 543.567 436.966 541.115 429.252C538.663 421.538 537.437 412.897 537.437 403.329V394.269C537.437 384.701 538.693 376.06 541.205 368.346C543.776 360.572 547.424 353.964 552.148 348.523C556.932 343.081 562.643 338.895 569.281 335.965C575.918 333.035 583.334 331.57 591.526 331.57C602.41 331.57 611.589 333.543 619.064 337.49C626.598 341.436 632.429 346.878 636.555 353.815C640.741 360.752 643.252 368.645 644.09 377.496H617.18C616.881 372.233 615.834 367.778 614.04 364.13C612.247 360.423 609.526 357.642 605.878 355.788C602.29 353.875 597.506 352.918 591.526 352.918C587.041 352.918 583.124 353.755 579.775 355.43C576.427 357.104 573.616 359.645 571.344 363.054C569.071 366.463 567.367 370.768 566.231 375.971C565.154 381.113 564.616 387.153 564.616 394.09V403.329C564.616 410.086 565.125 416.036 566.141 421.179C567.158 426.262 568.713 430.567 570.806 434.096C572.958 437.564 575.709 440.195 579.058 441.989C582.466 443.723 586.563 444.59 591.347 444.59C596.968 444.59 601.602 443.693 605.25 441.899C608.898 440.105 611.678 437.444 613.592 433.916C615.565 430.388 616.731 425.993 617.09 420.73Z" fill="#0F9FB1"/>
</svg>
