<svg width="16" height="16" viewBox="0 0 16 16" fill="none" xmlns="http://www.w3.org/2000/svg">
<path d="M9 8L13.1464 3.85355C13.4614 3.53857 13.2383 3 12.7929 3H3.20711C2.76165 3 2.53857 3.53857 2.85355 3.85355L6.85355 7.85355C6.94732 7.94732 7 8.0745 7 8.20711V13" stroke="#F0F0F0" stroke-linecap="round"/>
<path d="M10.5 9C11.8807 9 13 10.1193 13 11.5C13 12.8807 11.8807 14 10.5 14C9.11929 14 8 12.8807 8 11.5C8 10.1193 9.11929 9 10.5 9ZM10.5 10.9697L9.7041 10.1738L9.17383 10.7041L9.96973 11.5L9.17383 12.2959L9.7041 12.8262L10.5 12.0303L11.2959 12.8262L11.8262 12.2959L11.0303 11.5L11.8262 10.7041L11.2959 10.1738L10.5 10.9697Z" fill="#F0F0F0"/>
</svg>
