<svg width="16" height="16" viewBox="0 0 16 16" fill="none" xmlns="http://www.w3.org/2000/svg">
<g clip-path="url(#clip0_1913_8923)">
<path opacity="0.5" fill-rule="evenodd" clip-rule="evenodd" d="M12.41 7.19004C12.41 5.99855 11.5779 4.87754 10.37 4.55004C10.1237 3.94167 9.75161 3.45918 9.19955 3.00804C9.17843 2.99078 9.18943 2.95645 9.21666 2.95484C11.796 2.80164 13.91 4.88954 13.91 7.19004C13.91 9.50064 12.0442 11.3755 9.73697 11.39C8.85418 11.4482 6.91733 11.3281 5.12937 10.4818C4.66998 10.13 4.68499 9.38005 4.96998 8.76505C6.60126 9.79135 8.84674 9.95012 9.65626 9.89198L9.68309 9.89005H9.70999C11.2012 9.89005 12.41 8.68122 12.41 7.19004Z" fill="#F0F0F0"/>
<path fill-rule="evenodd" clip-rule="evenodd" d="M6.25999 3.56C4.76882 3.56 3.55998 4.76883 3.55998 6.26C3.55998 6.35306 3.57496 6.45156 3.59106 6.55683C3.60021 6.61669 3.58573 6.67755 3.55141 6.72744C3.32733 7.05327 3.09494 7.42743 2.82745 8.36415C2.81387 8.4117 2.752 8.42381 2.72318 8.38363C2.17053 7.61321 2.05998 6.76359 2.05998 6.26C2.05998 3.9404 3.94039 2.06 6.25999 2.06C6.28152 2.06 6.30303 2.06016 6.3245 2.06048C7.92765 2.08471 9.24713 3.17466 9.96595 4.41093C10.4763 5.28865 10.9223 6.54319 11.2928 8.585C11.3634 8.97393 10.5442 9.43202 9.98758 9.53419C9.95185 9.54075 9.92002 9.51295 9.91951 9.47663C9.89711 7.86869 9.09536 5.89783 8.66921 5.16491C8.12196 4.22371 7.2172 3.57415 6.30184 3.56031C6.28792 3.5601 6.27397 3.56 6.25999 3.56Z" fill="#F0F0F0"/>
<path opacity="0.25" fill-rule="evenodd" clip-rule="evenodd" d="M8.04612 5.00698C4.93673 6.62442 4.42431 8.94269 4.45915 9.67432L4.46 9.69214V9.70999C4.46 11.2012 5.66883 12.41 7.16 12.41C7.61117 12.41 8.03177 12.3426 8.42826 12.1298C8.59563 12.04 8.75107 11.93 8.915 11.795C9.07509 11.6632 9.86663 11.8746 10.8769 11.5682C10.903 11.5603 10.926 11.5882 10.9124 11.6119C10.393 12.5215 9.81138 13.0899 9.13759 13.4515C8.45103 13.8199 7.76162 13.91 7.16 13.91C4.84612 13.91 2.96928 12.0389 2.96003 9.72715C2.90906 8.46618 3.63386 5.9985 6.515 4.15998C6.56921 4.12539 6.6158 4.1051 6.66222 4.09468C7.23303 3.96654 7.77831 4.48687 8.04612 5.00698L-nan -nanL8.04612 5.00698Z" fill="#F0F0F0"/>
</g>
<defs>
<clipPath id="clip0_1913_8923">
<rect width="12" height="12" fill="white" transform="translate(1.99998 2)"/>
</clipPath>
</defs>
</svg>
