<svg width="16" height="16" viewBox="0 0 16 16" fill="none" xmlns="http://www.w3.org/2000/svg">
<path d="M7.77639 8.6382L5.27639 7.3882C5.107 7.3035 5 7.13037 5 6.94098L4.99998 4.55902C4.99998 4.36963 5.10699 4.1965 5.27638 4.1118L7.77639 2.8618C7.91716 2.79142 8.08284 2.79142 8.22361 2.8618L10.7236 4.1118C10.893 4.1965 11 4.36963 11 4.55902L11 6.94098C11 7.13037 10.893 7.3035 10.7236 7.3882L8.22361 8.6382C8.08284 8.70858 7.91716 8.70858 7.77639 8.6382Z" stroke="#F0F0F0"/>
<path d="M4.77641 13.1382L2.27641 11.8882C2.10702 11.8035 2.00001 11.6304 2.00001 11.441L2 9.05902C2 8.86963 2.107 8.6965 2.2764 8.6118L4.77641 7.3618C4.91717 7.29142 5.08286 7.29142 5.22362 7.3618L7.72361 8.6118C7.89301 8.6965 8.00001 8.86963 8.00001 9.05902L8.00001 11.441C8.00001 11.6304 7.89301 11.8035 7.72362 11.8882L5.22362 13.1382C5.08286 13.2086 4.91717 13.2086 4.77641 13.1382Z" stroke="#F0F0F0"/>
<path d="M10.7764 13.1382L8.27641 11.8882C8.10702 11.8035 8.00001 11.6304 8.00001 11.441L8 9.05902C8 8.86963 8.107 8.6965 8.2764 8.6118L10.7764 7.3618C10.9172 7.29142 11.0829 7.29142 11.2236 7.3618L13.7236 8.6118C13.893 8.6965 14 8.86963 14 9.05902L14 11.441C14 11.6304 13.893 11.8035 13.7236 11.8882L11.2236 13.1382C11.0829 13.2086 10.9172 13.2086 10.7764 13.1382Z" stroke="#F0F0F0"/>
<path d="M8 8.75V5.67857M8 5.67857L11 4.25M8 5.67857L5 4.25" stroke="#F0F0F0"/>
<path d="M5.00002 13.25V10.1786M5.00002 10.1786L8.00002 8.75M5.00002 10.1786L2.00002 8.75" stroke="#F0F0F0"/>
<path d="M11 13.25V10.1786M11 10.1786L14 8.75M11 10.1786L8.00002 8.75" stroke="#F0F0F0"/>
</svg>
