<svg width="16" height="16" viewBox="0 0 16 16" fill="none" xmlns="http://www.w3.org/2000/svg">
<path d="M13.7257 8.1857L12.1257 12.1857C12.0498 12.3755 11.8659 12.5 11.6615 12.5H5.73852C5.38478 12.5 5.14291 12.1427 5.27428 11.8143L6.87428 7.8143C6.95021 7.62448 7.13406 7.5 7.33852 7.5H13.2615C13.6152 7.5 13.8571 7.85726 13.7257 8.1857Z" stroke="#F0F0F0"/>
<path d="M6.11765 12.5H3.5C3.22386 12.5 3 12.2761 3 12V4C3 3.72386 3.22386 3.5 3.5 3.5H6.73529C7.01144 3.5 7.23529 3.72386 7.23529 4V4.6875C7.23529 4.96364 7.45915 5.1875 7.73529 5.1875H11.5C11.7761 5.1875 12 5.41136 12 5.6875V7.4375" stroke="#F0F0F0"/>
</svg>
