<svg width="16" height="16" viewBox="0 0 16 16" fill="none" xmlns="http://www.w3.org/2000/svg">
<path d="M8 9.69696C8.93724 9.69696 9.69703 8.93717 9.69703 7.99992C9.69703 7.06268 8.93724 6.30289 8 6.30289C7.06275 6.30289 6.30296 7.06268 6.30296 7.99992C6.30296 8.93717 7.06275 9.69696 8 9.69696Z" stroke="#F0F0F0"/>
<path d="M8.99844 2.42915C8.79084 2.34317 8.52723 2.34317 8.00002 2.34317C7.47281 2.34317 7.2092 2.34317 7.0016 2.42915C6.86424 2.48601 6.73944 2.56938 6.63432 2.6745C6.5292 2.77962 6.44583 2.90443 6.38897 3.04178C6.33693 3.16793 6.316 3.31557 6.30808 3.52996C6.30455 3.68495 6.26169 3.8365 6.18352 3.97038C6.10535 4.10426 5.99444 4.21608 5.86119 4.29533C5.72594 4.37115 5.57363 4.41135 5.41857 4.41214C5.26351 4.41293 5.1108 4.37429 4.97477 4.29985C4.78471 4.19916 4.64725 4.14372 4.51092 4.12562C4.21355 4.08652 3.91283 4.16709 3.67485 4.34963C3.49722 4.48709 3.36485 4.71506 3.10125 5.17156C2.83764 5.62806 2.70527 5.85603 2.67642 6.07947C2.65698 6.22681 2.66676 6.37653 2.7052 6.52008C2.74363 6.66363 2.80997 6.7982 2.90043 6.91611C2.98415 7.02472 3.10125 7.1158 3.28283 7.23006C3.5504 7.39807 3.72236 7.6843 3.72236 7.99995C3.72236 8.3156 3.5504 8.60183 3.28283 8.76927C3.10125 8.88411 2.98359 8.97518 2.90043 9.08379C2.80997 9.2017 2.74363 9.33627 2.7052 9.47983C2.66676 9.62338 2.65698 9.7731 2.67642 9.92043C2.70584 10.1433 2.83764 10.3718 3.10068 10.8283C3.36485 11.2848 3.49666 11.5128 3.67485 11.6503C3.79275 11.7407 3.92733 11.8071 4.07088 11.8455C4.21443 11.8839 4.36415 11.8937 4.51148 11.8743C4.64725 11.8562 4.78471 11.8007 4.97477 11.7001C5.1108 11.6256 5.26351 11.587 5.41857 11.5878C5.57363 11.5886 5.72594 11.6288 5.86119 11.7046C6.13441 11.863 6.29676 12.1543 6.30808 12.4699C6.316 12.6849 6.33636 12.832 6.38897 12.9581C6.44583 13.0955 6.5292 13.2203 6.63432 13.3254C6.73944 13.4305 6.86424 13.5139 7.0016 13.5708C7.2092 13.6567 7.47281 13.6567 8.00002 13.6567C8.52723 13.6567 8.79084 13.6567 8.99844 13.5708C9.1358 13.5139 9.26061 13.4305 9.36572 13.3254C9.47084 13.2203 9.55421 13.0955 9.61107 12.9581C9.66311 12.832 9.68404 12.6849 9.69196 12.4699C9.70328 12.1543 9.86563 11.8624 10.1388 11.7046C10.2741 11.6288 10.4264 11.5886 10.5815 11.5878C10.7365 11.587 10.8892 11.6256 11.0253 11.7001C11.2153 11.8007 11.3528 11.8562 11.4886 11.8743C11.6359 11.8937 11.7856 11.8839 11.9292 11.8455C12.0727 11.8071 12.2073 11.7407 12.3252 11.6503C12.5034 11.5134 12.6352 11.2848 12.8988 10.8283C13.1624 10.3718 13.2948 10.1439 13.3236 9.92043C13.3431 9.7731 13.3333 9.62338 13.2948 9.47983C13.2564 9.33627 13.1901 9.2017 13.0996 9.08379C13.0159 8.97518 12.8988 8.88411 12.7172 8.76984C12.5847 8.68929 12.4748 8.57638 12.3979 8.4417C12.3211 8.30703 12.2797 8.15502 12.2777 7.99995C12.2777 7.6843 12.4496 7.39807 12.7172 7.23063C12.8988 7.1158 13.0165 7.02472 13.0996 6.91611C13.1901 6.7982 13.2564 6.66363 13.2948 6.52008C13.3333 6.37653 13.3431 6.22681 13.3236 6.07947C13.2942 5.8566 13.1624 5.62806 12.8994 5.17156C12.6352 4.71506 12.5034 4.48709 12.3252 4.34963C12.2073 4.25917 12.0727 4.19283 11.9292 4.1544C11.7856 4.11596 11.6359 4.10618 11.4886 4.12562C11.3528 4.14372 11.2153 4.19916 11.0247 4.29985C10.8887 4.37419 10.7361 4.41277 10.5812 4.41198C10.4262 4.41119 10.274 4.37105 10.1388 4.29533C10.0056 4.21608 9.89469 4.10426 9.81652 3.97038C9.73835 3.8365 9.69549 3.68495 9.69196 3.52996C9.68404 3.31501 9.66368 3.16793 9.61107 3.04178C9.55421 2.90443 9.47084 2.77962 9.36572 2.6745C9.26061 2.56938 9.1358 2.48601 8.99844 2.42915Z" stroke="#F0F0F0"/>
</svg>
