<svg width="16" height="16" viewBox="0 0 16 16" fill="none" xmlns="http://www.w3.org/2000/svg">
<path d="M8 1.33301C11.6819 1.33301 14.667 4.3181 14.667 8C14.667 11.6819 11.6819 14.667 8 14.667C4.3181 14.667 1.33301 11.6819 1.33301 8C1.33301 4.3181 4.3181 1.33301 8 1.33301ZM8 4.77734C7.86768 4.77743 7.74014 4.83037 7.64648 4.92383L5.31348 7.25684C5.11828 7.45203 5.1184 7.76859 5.31348 7.96387C5.50874 8.15913 5.82525 8.15913 6.02051 7.96387L7.5 6.48438V10.7217C7.5 10.9977 7.72401 11.2215 8 11.2217C8.27598 11.2215 8.5 10.9977 8.5 10.7217V6.4834L9.98047 7.96387L10.0586 8.02832C10.2527 8.15639 10.5167 8.13469 10.6875 7.96387C10.8577 7.79303 10.8789 7.52974 10.751 7.33594L10.6875 7.25684L8.35352 4.92383C8.25985 4.83026 8.13239 4.77744 8 4.77734Z" fill="#F0F0F0"/>
</svg>
