<svg width="16" height="16" viewBox="0 0 16 16" fill="none" xmlns="http://www.w3.org/2000/svg">
    <path d="M3.99999 14H12C12.3682 14 12.6667 13.7015 12.6667 13.3333V6.27614C12.6667 6.09933 12.5964 5.92976 12.4714 5.80474L10.6667 4L8.86192 2.19526C8.7369 2.07024 8.56733 2 8.39052 2H3.99999C3.63181 2 3.33333 2.29848 3.33333 2.66667V13.3333C3.33333 13.7015 3.6318 14 3.99999 14Z" stroke="#F0F0F0"/>
    <mask id="mask0_3081_37" style="mask-type:alpha" maskUnits="userSpaceOnUse" x="3" y="2" width="10" height="12">
        <path d="M3.99999 14H12C12.3682 14 12.6667 13.7015 12.6667 13.3333V6.27614C12.6667 6.09933 12.5964 5.92976 12.4714 5.80474L10.6667 4L8.86192 2.19526C8.7369 2.07024 8.56733 2 8.39052 2H3.99999C3.63181 2 3.33333 2.29848 3.33333 2.66667V13.3333C3.33333 13.7015 3.6318 14 3.99999 14Z" fill="#F0F0F0"/>
    </mask>
    <g mask="url(#mask0_3081_37)">
        <path d="M6 9L8 11L10 9" stroke="#F0F0F0">
            <animateTransform
              attributeName="transform"
              begin="0s"
              dur="1s"
              type="translate"
              from="0 -12"
              to="0 12"
              repeatCount="indefinite"
            />
        </path>
        <path d="M8 11L8 5" stroke="#F0F0F0">
            <animateTransform
              attributeName="transform"
              begin="0s"
              dur="1s"
              type="translate"
              from="0 -12"
              to="0 12"
              repeatCount="indefinite"
            />
        </path>
    </g>
</svg>
