<svg width="16" height="16" viewBox="0 0 16 16" fill="none" xmlns="http://www.w3.org/2000/svg">
<path d="M3.8383 13.7929L9.17164 15.1262C9.5924 15.2314 9.99999 14.9132 9.99999 14.4795V7.56719C9.99999 7.41581 9.94847 7.26893 9.85391 7.15072L8.66666 5.66667L7.41083 4.09688C7.3596 4.03284 7.297 3.97881 7.22616 3.93749L4.33591 2.2515C3.89147 1.99225 3.33333 2.31283 3.33333 2.82736V13.1461C3.33333 13.4521 3.54153 13.7187 3.8383 13.7929Z" stroke="#F0F0F0"/>
<path d="M3.33333 2.33333V13.1461C3.33333 13.4521 3.54153 13.7187 3.8383 13.7929L9.17164 15.1262C9.5924 15.2314 9.99999 14.9132 9.99999 14.4795V14.3333C9.99999 13.9651 10.2985 13.6667 10.6667 13.6667H12C12.3682 13.6667 12.6667 13.3682 12.6667 13V5.94281C12.6667 5.766 12.5964 5.59643 12.4714 5.4714L10.6667 3.66667L8.86192 1.86193C8.7369 1.7369 8.56733 1.66667 8.39052 1.66667H3.99999C3.63181 1.66667 3.33333 1.96514 3.33333 2.33333Z" stroke="#F0F0F0"/>
</svg>
